<svg width="16" height="12" viewBox="0 0 16 12" fill="none" xmlns="http://www.w3.org/2000/svg">
<path d="M8.00001 2.00002C9.06667 2.00002 10.0667 2.40002 10.8 3.20002L13.6 6.00002L10.8 8.80002C10.0667 9.60002 9.06667 10 8.00001 10C6.93334 10 5.93334 9.60002 5.20001 8.80002L2.33334 6.00002L5.13334 3.20002C5.93334 2.40002 6.93334 2.00002 8.00001 2.00002ZM8.00001 0.666687C6.66667 0.666687 5.26667 1.20002 4.20001 2.20002L0.466675 6.00002L4.26667 9.80002C5.26667 10.8 6.66667 11.3334 8.00001 11.3334C9.33334 11.3334 10.7333 10.8 11.8 9.80002L15.6 6.00002L11.8 2.20002C10.7333 1.20002 9.33334 0.666687 8.00001 0.666687ZM8.00001 4.66669C7.26667 4.66669 6.66667 5.26669 6.66667 6.00002C6.66667 6.73335 7.26667 7.33335 8.00001 7.33335C8.73334 7.33335 9.33334 6.73335 9.33334 6.00002C9.33334 5.26669 8.73334 4.66669 8.00001 4.66669Z" fill="#D6D6D6"/>
</svg>
