<svg width="10" height="12" viewBox="0 0 10 12" fill="none" xmlns="http://www.w3.org/2000/svg">
<path fill-rule="evenodd" clip-rule="evenodd" d="M1.77992 4.29807H0.5841C0.421048 4.29807 0.288494 4.43062 0.288494 4.59367L0.288483 11.7038C0.288483 11.8613 0.427678 12 0.5841 12H9.41593C9.57233 12 9.71155 11.8613 9.71155 11.7038L9.71152 4.59367C9.71152 4.43727 9.57231 4.29805 9.4159 4.29805H8.19129V3.04623C8.19129 1.323 6.68519 -0.0235184 4.98561 0.000280122C3.21808 0.000280122 1.77995 1.34742 1.77995 3.04618L1.77992 4.29807ZM8.58041 10.8396H1.45975V5.53982H8.58098L8.58041 10.8396ZM4.98561 0.925994C6.32285 0.925994 7.03997 1.5678 7.04122 3.04619V4.29801H2.8899V3.04619C2.8899 1.71788 3.64837 0.925994 4.98561 0.925994ZM5.54779 8.79365C5.90531 8.59915 6.14797 8.22019 6.14797 7.78455C6.14797 7.15054 5.634 6.63656 4.99998 6.63656C4.36597 6.63656 3.852 7.15054 3.852 7.78455C3.852 8.22018 4.09464 8.59913 4.45215 8.79364V9.79655H5.54779V8.79365Z" fill="#5C5C5C"/>
</svg>
