<svg width="20" height="20" viewBox="0 0 20 20" fill="none" xmlns="http://www.w3.org/2000/svg">
  <path d="M20 9.16667H16.6667V10.8333H20V9.16667Z" fill="#191919"/>
  <path d="M3.33333 9.16667H0V10.8333H3.33333V9.16667Z" fill="#191919"/>
  <path d="M16.4818 2.30565L14.1248 4.66265L15.3033 5.84115L17.6603 3.48415L16.4818 2.30565Z" fill="#191919"/>
  <path d="M10.8333 0H9.16667V3.33333H10.8333V0Z" fill="#191919"/>
  <path d="M3.4839 2.33943L2.30557 3.5181L4.6629 5.87477L5.84123 4.6961L3.4839 2.33943Z" fill="#191919"/>
  <path d="M15 10C15 7.25 12.75 5 10 5C7.25 5 5 7.25 5 10V15H3.33333V20H16.6667V15H15V10ZM6.66667 10C6.66667 8.16667 8.16667 6.66667 10 6.66667C11.8333 6.66667 13.3333 8.16667 13.3333 10V15H6.66667V10ZM15 18.3333H5V16.6667H15V18.3333Z" fill="#191919"/>
  <path d="M10 8.33333V13.3333H11.6667V10C11.6667 9.08333 10.9167 8.33333 10 8.33333Z" fill="#191919"/>
</svg>
