<svg xmlns="http://www.w3.org/2000/svg" width="800" height="460" viewBox="0 0 800 460" font-family="Helvetica, Arial, sans-serif">
  <rect width="800" height="460" fill="white"/>

  <!-- Reference line as polyline (vertices roughly 1 m apart) -->
  <polyline points="21,102 186,92 350,107 502,170 645,253" stroke="#333" stroke-width="2.5" fill="none"/>
  <text x="80" y="78" font-size="13" fill="#333">pituusmittauslinja</text>

  <!-- Upper (conceptual) extension of the projection-line interval -->
  <polygon points="288,0 482,0 432,141 272,100" fill="#1976d2" fill-opacity="0.025"/>

  <!-- Subtle highlight for the projection-line interval ("viuhka") -->
  <polygon points="272,100 227,376 339,405 432,141" fill="#1976d2" fill-opacity="0.05"/>

  <!-- Upper (conceptual) extensions of the projection lines -->
  <line x1="288" y1="0" x2="272" y2="100" stroke="#1976d2" stroke-width="2.5" stroke-opacity="0.3"/>
  <line x1="482" y1="0" x2="432" y2="141" stroke="#1976d2" stroke-width="2.5" stroke-opacity="0.3"/>

  <!-- Two adjacent (known) projection lines L and R -->
  <line x1="272" y1="100" x2="227" y2="376" stroke="#1976d2" stroke-width="2.5"/>
  <line x1="432" y1="141" x2="339" y2="405" stroke="#1976d2" stroke-width="2.5"/>

  <!-- Dashed segment connecting the two start points: where the interpolated start lies -->
  <line x1="272" y1="100" x2="432" y2="141" stroke="#888" stroke-width="1" stroke-dasharray="4,3"/>

  <!-- Upper (conceptual) extension of the interpolated projection line -->
  <line x1="402" y1="0" x2="368" y2="125" stroke="#e65100" stroke-width="2.5" stroke-opacity="0.3"/>

  <!-- Interpolated projection line I, drawn at proportion 0.6 from L toward R -->
  <line x1="368" y1="125" x2="294" y2="395" stroke="#e65100" stroke-width="2.5"/>

  <!-- Markers at start points -->
  <circle cx="272" cy="100" r="5" fill="#1976d2"/>
  <circle cx="432" cy="141" r="5" fill="#1976d2"/>
  <circle cx="368" cy="125" r="5" fill="#e65100" stroke="white" stroke-width="1.5"/>

  <!-- Labels -->
  <text x="262" y="70" text-anchor="end" font-size="14" fill="#1976d2" font-weight="bold">L</text>
  <text x="262" y="85" text-anchor="end" font-size="11" fill="#1976d2">0123</text>

  <text x="450" y="117" font-size="14" fill="#1976d2" font-weight="bold">R</text>
  <text x="450" y="132" font-size="11" fill="#1976d2">0124</text>

  <text x="388" y="92" text-anchor="middle" font-size="14" fill="#e65100" font-weight="bold">I</text>
  <text x="388" y="107" text-anchor="middle" font-size="11" fill="#e65100">0123.600</text>

  <!-- Caption -->
  <g transform="translate(80, 420)">
    <text font-size="13" fill="#444">
      <tspan x="0" dy="0">Rataosoitteen 0123.600 projektioviiva I saadaan interpoloimalla metripisteiden</tspan>
      <tspan x="0" dy="18">projektioviivojen L ja R alkupiste ja kulma lineaarisesti suhteessa 0.4*L+0.6*R.</tspan>
    </text>
  </g>
</svg>
