<svg xmlns="http://www.w3.org/2000/svg" width="800" height="460" viewBox="0 0 800 460" font-family="Helvetica, Arial, sans-serif">
  <rect width="800" height="460" fill="white"/>

  <!-- Reference line (same polyline as the forward-geocoding diagram) -->
  <polyline points="21,102 186,92 350,107 502,170 645,253" stroke="#333" stroke-width="2.5" fill="none"/>
  <text x="80" y="78" font-size="13" fill="#333">pituusmittauslinja</text>

  <!-- Upper (conceptual) extension of the projection-line interval -->
  <polygon points="288,0 482,0 432,141 272,100" fill="#1976d2" fill-opacity="0.025"/>

  <!-- Subtle highlight for the projection-line interval -->
  <polygon points="272,100 227,376 339,405 432,141" fill="#1976d2" fill-opacity="0.05"/>

  <!-- Upper (conceptual) extensions of the projection lines -->
  <line x1="288" y1="0" x2="272" y2="100" stroke="#1976d2" stroke-width="2.5" stroke-opacity="0.3"/>
  <line x1="482" y1="0" x2="432" y2="141" stroke="#1976d2" stroke-width="2.5" stroke-opacity="0.3"/>

  <!-- Two adjacent (known) projection lines L and R -->
  <line x1="272" y1="100" x2="227" y2="376" stroke="#1976d2" stroke-width="2.5"/>
  <line x1="432" y1="141" x2="339" y2="405" stroke="#1976d2" stroke-width="2.5"/>

  <!-- Faint reference: line between L_start and R_start (parallel to the query line) -->
  <line x1="272" y1="100" x2="432" y2="141" stroke="#888" stroke-width="1" stroke-dasharray="3,3" opacity="0.55"/>

  <!-- Query line: through Q, in direction L_start → R_start, extending past both intersections -->
  <line x1="200" y1="248" x2="420" y2="305" stroke="#2e7d32" stroke-width="2" stroke-dasharray="6,3"/>

  <!-- Markers at L_start and R_start -->
  <circle cx="272" cy="100" r="5" fill="#1976d2"/>
  <circle cx="432" cy="141" r="5" fill="#1976d2"/>

  <!-- Query coordinate Q -->
  <circle cx="320" cy="280" r="6" fill="#2e7d32"/>

  <!-- Intersection points of query line with L and R projections -->
  <circle cx="246" cy="261" r="4.5" fill="white" stroke="#e65100" stroke-width="2.5"/>
  <circle cx="378" cy="295" r="4.5" fill="white" stroke="#e65100" stroke-width="2.5"/>

  <!-- Labels for L and R -->
  <text x="262" y="70" text-anchor="end" font-size="14" fill="#1976d2" font-weight="bold">L</text>
  <text x="262" y="85" text-anchor="end" font-size="11" fill="#1976d2">0123</text>

  <text x="450" y="117" font-size="14" fill="#1976d2" font-weight="bold">R</text>
  <text x="450" y="132" font-size="11" fill="#1976d2">0124</text>

  <!-- Q label -->
  <text x="332" y="285" font-size="14" fill="#2e7d32" font-weight="bold">Q</text>

  <!-- Query line label -->
  <text x="200" y="230" font-size="11" fill="#2e7d32" font-style="italic" transform="rotate(14.5 200 240)">kyselyviiva  (suunta L_start → R_start)</text>

  <!-- Intersection labels -->
  <text x="240" y="252" text-anchor="end" font-size="11" fill="#e65100">P_L</text>
  <text x="386" y="295" font-size="11" fill="#e65100">P_R</text>

  <!-- Caption -->
  <g transform="translate(80, 420)">
    <text font-size="13" fill="#444">
      <tspan x="0" dy="0">Q on haettava koordinaatti. Kyselyviiva (vihreä) lähtee Q:sta suunnassa L_start → R_start.</tspan>
      <tspan x="0" dy="18">Q:n suhteellinen sijainti leikkauspisteiden P_L ja P_R välissä antaa osoitteen (≈ 0123.6).</tspan>
    </text>
  </g>
</svg>
