<svg id="Layer_1" data-name="Layer 1" xmlns="http://www.w3.org/2000/svg" viewBox="0 0 996.04 276.4">
  <defs>
    <style>.cls-1{fill:#fff;}</style>
  </defs>
  <path class="cls-1" d="M182.64,112H256c5.24,0,6.7,1.79,8,4.79.71,1.66,44.17,105.6,44.17,105.6L202.42,159.57Z"
        transform="translate(-182.64 -112)"/>
  <polygon class="cls-1" points="22.15 53.17 127.73 115.66 142.78 151.98 79.22 189.79 22.15 53.17"/>
  <polygon class="cls-1" points="80.73 192.89 144.27 155.2 153.9 178.48 115.37 276.4 80.73 192.89"/>
  <path class="cls-1" d="M521.47,112H448.08c-5.25,0-6.7,1.79-8,4.79-.7,1.66-44.16,105.6-44.16,105.6l105.75-62.82Z"
        transform="translate(-182.64 -112)"/>
  <polygon class="cls-1" points="316.68 53.17 211.1 115.66 196.04 151.98 259.61 189.79 316.68 53.17"/>
  <polygon class="cls-1" points="258.1 192.89 194.55 155.2 184.92 178.48 223.46 276.4 258.1 192.89"/>
  <path class="cls-1"
        d="M669.12,214.21,648.8,280.14a3.65,3.65,0,0,1-3.78,2.78h-9.76a3.65,3.65,0,0,1-3.79-2.78l-20.31-65.93h10.25L637,267.69q.49,1.89,1.89,7.57h2.69q.6-2.89,1.89-7.57l15.44-53.48Z"
        transform="translate(-182.64 -112)"/>
  <path class="cls-1"
        d="M676.71,242.39l-.9-7.07a139.58,139.58,0,0,1,23.6-2.29q8.87,0,13.05,3.59t4.18,12.44v33.86h-7.57L708,275.26q-8.37,8.57-19.42,8.56-6.78,0-10.81-3.58t-4-10.16V265q0-5.78,3.58-9t10.16-3.19H707v-3.79c-.07-3-.76-5-2.09-6.17s-3.85-1.69-7.57-1.69S686.8,241.6,676.71,242.39Zm11.75-17.73h-3.29c-1.66,0-2.49-.89-2.49-2.68V216.6c0-1.79.83-2.69,2.49-2.69h3.29c1.72,0,2.59.9,2.59,2.69V222C691.05,223.77,690.18,224.66,688.46,224.66Zm-5,41.63v2.59q0,3.58,1.69,5.18t5.38,1.59q8.66,0,16.43-6.77v-8.76H689.26c-2.13.07-3.62.61-4.49,1.64A6.91,6.91,0,0,0,683.48,266.29Zm22.61-41.63H702.9c-1.73,0-2.59-.89-2.59-2.68V216.6c0-1.79.86-2.69,2.59-2.69h3.19a2.37,2.37,0,0,1,2.68,2.69V222A2.37,2.37,0,0,1,706.09,224.66Z"
        transform="translate(-182.64 -112)"/>
  <path class="cls-1"
        d="M774.6,234.33l-18.82,50.89q-6.78,17.92-22.31,18.12l-1-6.37a22.86,22.86,0,0,0,9-4.68,22,22,0,0,0,5.28-7.57l.69-1.8h-2a3.06,3.06,0,0,1-3.38-2.49l-17.23-46.1h10.35l12.05,35.35a31.83,31.83,0,0,1,1.7,6h1.39c.66-1.79,1.33-3.78,2-6l12-35.35Z"
        transform="translate(-182.64 -112)"/>
  <path class="cls-1"
        d="M794.22,213.21v55.67a5.87,5.87,0,0,0,1.49,4.63,6.64,6.64,0,0,0,4.78,1.55H805l1.09,7.47c-1.93.86-5,1.29-9.26,1.29q-5.67,0-9-3.33t-3.29-9.42V213.21Z"
        transform="translate(-182.64 -112)"/>
  <path class="cls-1"
        d="M816.67,242.39l-.9-7.07a139.58,139.58,0,0,1,23.6-2.29q8.86,0,13,3.59t4.18,12.44v33.86H849l-1.09-7.66q-8.37,8.57-19.42,8.56-6.78,0-10.81-3.58t-4-10.16V265q0-5.78,3.58-9t10.16-3.19h19.52v-3.79q-.09-4.47-2.09-6.17t-7.57-1.69Q831.81,241.2,816.67,242.39Zm11.75-17.73h-3.29c-1.66,0-2.49-.89-2.49-2.68V216.6c0-1.79.83-2.69,2.49-2.69h3.29c1.72,0,2.59.9,2.59,2.69V222C831,223.77,830.14,224.66,828.42,224.66Zm-5,41.63v2.59q0,3.58,1.69,5.18t5.38,1.59q8.65,0,16.43-6.77v-8.76H829.22c-2.13.07-3.62.61-4.49,1.64A6.91,6.91,0,0,0,823.44,266.29Zm22.61-41.63h-3.19c-1.73,0-2.59-.89-2.59-2.68V216.6c0-1.79.86-2.69,2.59-2.69h3.19a2.37,2.37,0,0,1,2.68,2.69V222A2.37,2.37,0,0,1,846.05,224.66Z"
        transform="translate(-182.64 -112)"/>
  <path class="cls-1"
        d="M914.7,234.33l-17.33,46.2a3.44,3.44,0,0,1-3.38,2.39h-8.67a3.17,3.17,0,0,1-3.28-2.39l-17.33-46.2H875l11.36,33.46,2.69,8.36h1.29l2.89-8.36,11.25-33.46Z"
        transform="translate(-182.64 -112)"/>
  <path class="cls-1"
        d="M927.19,213.61h4.58a2.47,2.47,0,0,1,2.79,2.79V222q0,2.88-2.79,2.88h-4.58q-2.79,0-2.79-2.88V216.4A2.47,2.47,0,0,1,927.19,213.61Zm7.07,69.31H924.7V234.33h9.56Z"
        transform="translate(-182.64 -112)"/>
  <path class="cls-1"
        d="M979.81,233l-1.09,9.06h-3q-5.67,0-17.43,5.58v35.25h-9.66V234.33h7.47l1,7.36Q968,233,977.52,233Z"
        transform="translate(-182.64 -112)"/>
  <path class="cls-1"
        d="M990.23,242.39l-.9-7.07a139.69,139.69,0,0,1,23.61-2.29q8.85,0,13,3.59t4.19,12.44v33.86h-7.57l-1.1-7.66q-8.37,8.57-19.42,8.56-6.78,0-10.81-3.58t-4-10.16V265q0-5.78,3.59-9t10.15-3.19h19.52v-3.79q-.09-4.47-2.09-6.17t-7.56-1.69Q1005.36,241.2,990.23,242.39Zm6.77,23.9v2.59q0,3.58,1.69,5.18c1.13,1.06,2.93,1.59,5.38,1.59q8.67,0,16.43-6.77v-8.76h-17.72c-2.13.07-3.62.61-4.48,1.64A6.86,6.86,0,0,0,997,266.29Z"
        transform="translate(-182.64 -112)"/>
  <path class="cls-1"
        d="M1066,263.8l-13.55-3.38q-6.08-1.59-8.56-4.73c-1.66-2.1-2.49-5.13-2.49-9.12q0-8.06,4.33-10.85t14.89-2.69a143.9,143.9,0,0,1,20.71,1.69l-.79,7q-15.24-.49-18.43-.49-7.07,0-9.21.84t-2.14,4.53a10.13,10.13,0,0,0,.3,2.74,3,3,0,0,0,1.54,1.75,13.91,13.91,0,0,0,1.94.94c.47.17,1.5.48,3.09.95l13.74,3.38q6.18,1.6,8.77,4.54c1.72,1.95,2.59,5,2.59,9.11q0,8.56-4.73,11.3T1061.57,284a129.72,129.72,0,0,1-19.32-1.39l.7-7.17q5.58.5,16.63.49,8.16,0,11-1.14c1.85-.76,2.79-2.38,2.79-4.83a7.64,7.64,0,0,0-.4-2.64,3.4,3.4,0,0,0-1.7-1.74,13.77,13.77,0,0,0-2-1C1068.69,264.48,1067.61,264.2,1066,263.8Z"
        transform="translate(-182.64 -112)"/>
  <path class="cls-1"
        d="M1122.74,275.06l1.1,7.47a43,43,0,0,1-11.46,1.29q-6.17,0-9.41-3.53t-3.23-10.11V241.79h-8.87v-7l8.87-.39V220.09h9.56v14.24h15v7.46h-15v27.09q0,3.39,1.44,4.78c1,.93,2.61,1.4,4.93,1.4Z"
        transform="translate(-182.64 -112)"/>
  <path class="cls-1"
        d="M1137.55,238.91q5.27-5.88,17.92-5.88t17.93,5.88q5.28,5.88,5.28,19.81t-5.28,19.72q-5.28,5.79-17.93,5.78t-17.92-5.78q-5.28-5.78-5.28-19.72T1137.55,238.91Zm28.28,6q-2.79-3.67-10.36-3.68c-5,0-8.5,1.23-10.35,3.68s-2.79,7.07-2.79,13.84.93,11.29,2.79,13.75,5.31,3.68,10.35,3.68,8.5-1.23,10.36-3.68,2.79-7,2.79-13.75S1167.69,247.34,1165.83,244.88Z"
        transform="translate(-182.64 -112)"/>
</svg>