<svg width="22" height="22" viewBox="0 0 22 22" fill="none" xmlns="http://www.w3.org/2000/svg">
  <path fill-rule="evenodd" clip-rule="evenodd"
        d="M5 0.579992L6.92559 0.0395355L8.23209 4.69444L6.30649 5.23489L5 0.579992ZM22 12.9044L6.5 6.49999L12.9044 22C12.9044 22 14.3114 18.8837 15.185 16.5994L19.0856 20.5L20.5 19.086L16.5991 15.1851C18.8835 14.3115 22 12.9044 22 12.9044ZM12.9044 17.1706L9.85714 9.85717L17.1706 12.9044L14 14.1408L12.9044 17.1706ZM0.523575 5.02749L0.0258179 6.96456L4.70846 8.16783L5.20622 6.23076L0.523575 5.02749ZM3 14.3L1.60302 12.8688L5.06288 9.49171L6.45986 10.923L3 14.3ZM14.3043 3.12407L12.9 1.69999L9.45746 5.09466L10.8617 6.51874L14.3043 3.12407Z"
        fill="#004D99"/>
</svg>
