<svg width="31" height="14" viewBox="0 0 31 14" fill="none" xmlns="http://www.w3.org/2000/svg">
  <path d="M17 13L25.48 4.52002L29 13H17Z" fill="black" stroke="black" stroke-miterlimit="10"/>
  <path d="M17 13.0001L26.9 3.1001" stroke="black" stroke-miterlimit="10"/>
  <path d="M15 13H31" stroke="black" stroke-miterlimit="10"/>
  <path d="M8 1V9" stroke="black" stroke-miterlimit="10" stroke-linecap="round"/>
  <path d="M8 5L12 9" stroke="black" stroke-linecap="round" stroke-linejoin="bevel"/>
  <path d="M12 1L8 5" stroke="black" stroke-linecap="round" stroke-linejoin="bevel"/>
  <path d="M3 1C3.53043 1 4.03914 1.21071 4.41421 1.58579C4.78929 1.96086 5 2.46957 5 3" stroke="black"
        stroke-linecap="round" stroke-linejoin="bevel"/>
  <path d="M1 7C1 7.53043 1.21071 8.03914 1.58579 8.41421C1.96086 8.78929 2.46957 9 3 9" stroke="black"
        stroke-linecap="round" stroke-linejoin="bevel"/>
  <path d="M5 7C5 6.46957 4.78929 5.96086 4.41421 5.58579C4.03914 5.21071 3.53043 5 3 5C2.46957 5 1.96086 4.78929 1.58579 4.41421C1.21071 4.03914 1 3.53043 1 3"
        stroke="black" stroke-linecap="round" stroke-linejoin="bevel"/>
  <path d="M1 3C1 2.46957 1.21071 1.96086 1.58579 1.58579C1.96086 1.21071 2.46957 1 3 1" stroke="black"
        stroke-linecap="round" stroke-linejoin="bevel"/>
  <path d="M3 9C3.53043 9 4.03914 8.78929 4.41421 8.41421C4.78929 8.03914 5 7.53043 5 7" stroke="black"
        stroke-linecap="round" stroke-linejoin="bevel"/>
</svg>
