<svg width="33" height="33" viewBox="0 0 33 33" fill="none" xmlns="http://www.w3.org/2000/svg">
  <circle cx="16.5" cy="16.5" r="16.5" fill="white"/>
  <path fill-rule="evenodd" clip-rule="evenodd"
        d="M23.9661 31.2182C29.327 28.4933 33 22.9256 33 16.5C33 11.179 30.4813 6.44634 26.5711 3.42909L21.5692 8.43105C22.4644 9.54484 23 10.9599 23 12.5C23 15.5736 20.8667 18.1489 18 18.8261V23.15C21.4234 23.8449 24 26.8716 24 30.5C24 30.7422 23.9885 30.9818 23.9661 31.2182ZM9.03394 31.2182C3.67298 28.4933 0 22.9256 0 16.5C0 7.3873 7.3873 0 16.5 0C19.1897 0 21.729 0.643563 23.9725 1.7851L19.1808 6.57681C18.3634 6.2063 17.4558 6 16.5 6C12.9101 6 10 8.91015 10 12.5C10 15.5736 12.1333 18.1489 15 18.8261V23.15C11.5766 23.8449 9 26.8716 9 30.5C9 30.7422 9.01149 30.9818 9.03394 31.2182ZM20.5301 32.5043C19.2403 32.8281 17.8902 33 16.5 33C15.1098 33 13.7597 32.8281 12.4699 32.5043C12.1692 31.9008 12 31.2201 12 30.5C12 28.0147 14.0147 26 16.5 26C18.9853 26 21 28.0147 21 30.5C21 31.2201 20.8308 31.9008 20.5301 32.5043ZM16.5 16C18.433 16 20 14.433 20 12.5C20 10.567 18.433 9 16.5 9C14.567 9 13 10.567 13 12.5C13 14.433 14.567 16 16.5 16Z"
        fill="#009BFF"/>
</svg>
